######## ######## ######## ##          ######## ########  ######## ######## 
##       ##       ##       ##          ##       ##     ## ##       ##       
##       ##       ##       ##          ##       ##     ## ##       ##       
######   ######   ######   ##          ######   ########  ######   ######   
##       ##       ##       ##          ##       ##   ##   ##       ##       
##       ##       ##       ##          ##       ##    ##  ##       ##       
##       ######## ######## ########    ##       ##     ## ######## ######## 

Genre:Action | Drama
Language:Mandarin
IMDb: 
http://www.imdb.com/title/tt1533749/
Source:Bluray.x264.AC3-HDChina
Subtitles:Romana/English


Format : MPEG-4
Format profile : Base Media
Codec ID : isom
File size : 2.70 GiB
Duration : 2h 11mn
Overall bit rate : 2 952 Kbps


Video
Format profile : High@L4.1
Format settings, CABAC : Yes
Format settings, ReFrames : 3 frames
Format settings, GOP : N=1
Codec ID : avc1
Codec ID/Info : Advanced Video Coding
Duration : 2h 11mn
Bit rate mode : Variable
Bit rate : 2 500 Kbps
Maximum bit rate : 19.4 Mbps
Width : 1 280 pixels
Height : 544 pixels
Display aspect ratio : 2.35:1
Frame rate mode : Constant
Frame rate : 23.976 fps
Color space : YUV
Chroma subsampling : 4:2:0
Bit depth : 8 bits
Scan type : Progressive
Bits/(Pixel*Frame) : 0.150
Stream size : 2.29 GiB (85%)
Writing library : x264


Audio
ID : 2
Format : AAC
Format/Info : Advanced Audio Codec
Format version : Version 4
Format profile : LC
Format settings, SBR : No
Codec ID : 40
Duration : 2h 11mn
Bit rate mode : Variable
Bit rate : 442 Kbps
Maximum bit rate : 551 Kbps
Channel(s) : 6 channels
Channel positions : Front: L C R, Side: L R, LFE
Sampling rate : 48.0 KHz
Stream size : 414 MiB (15%)


Plot:
China is plunged into strife as feuding warlords try to expand their power by warring over neighboring lands



Greets:

INK,CRYS,IMAGINE,LKRG,FXG,3Li,FLAWL3SS,TA,iLLUSiON,ViSiON,DTRG SAFCuk009,LU,TheFalcon007,MYSTiC,PrisM,Noir,WBZ,LAP,Rx,Kingdom,SAFCuk009+Fabreezy,HDLiTE,TWiZTED,ExtraTorrentRG.ELEKTRI4KA,MAGNAT,CM8
And to all the other p2p grps past and present




================================== 
http://thepiratebay.org/user/hiest
==================================




Screenshots:
 
http://www.pix2links.com/images/54887419885808129448.png
 
http://www.pix2links.com/images/78681658459690211026.png
 
http://www.pix2links.com/images/85077543694196617191.png
 
http://www.pix2links.com/images/05096444559023604253.png
 
http://www.pix2links.com/images/41008611847808399348.png

######## ######## ######## ##          ######## ########  ######## ######## 
##       ##       ##       ##          ##       ##     ## ##       ##       
##       ##       ##       ##          ##       ##     ## ##       ##       
######   ######   ######   ##          ######   ########  ######   ######   
##       ##       ##       ##          ##       ##   ##   ##       ##       
##       ##       ##       ##          ##       ##    ##  ##       ##       
##       ######## ######## ########    ##       ##     ## ######## ######## 